# xmcd CD database file
#
# Track frame offsets:
#	150
#	91725
#	133118
#	165773
#	236606
#
# Disc length: 3931 seconds
#
# Revision: 0
# Processed by: cddbd v1.5.1PL0 Copyright (c) Steve Scherf et al.
# Submitted via: CDex 1.51
#
DISCID=2f0f5905
DTITLE=Rolex Baxter - A Journey To The South
DYEAR=2005
DGENRE=Jazz
TTITLE0=Mix 1
TTITLE1=Mix 2
TTITLE2=Mix 3
TTITLE3=Mix 4
TTITLE4=Mix 5
EXTD=YEAR: 2005
EXTT0=
EXTT1=
EXTT2=
EXTT3=
EXTT4=
PLAYORDER=
